<svg width="112" height="36" viewBox="0 0 112 36" fill="none" xmlns="http://www.w3.org/2000/svg">
<path d="M34.928 13.424C34.816 13.312 34.608 13.16 34.304 12.968C34.016 12.776 33.656 12.592 33.224 12.416C32.808 12.224 32.352 12.064 31.856 11.936C31.36 11.808 30.856 11.744 30.344 11.744C29.432 11.744 28.752 11.912 28.304 12.248C27.856 12.584 27.632 13.056 27.632 13.664C27.632 14.016 27.712 14.312 27.872 14.552C28.048 14.776 28.296 14.976 28.616 15.152C28.936 15.328 29.336 15.488 29.816 15.632C30.312 15.776 30.88 15.928 31.52 16.088C32.352 16.312 33.104 16.552 33.776 16.808C34.464 17.064 35.04 17.384 35.504 17.768C35.984 18.152 36.352 18.616 36.608 19.16C36.864 19.688 36.992 20.344 36.992 21.128C36.992 22.04 36.816 22.824 36.464 23.48C36.128 24.12 35.664 24.64 35.072 25.04C34.496 25.44 33.824 25.736 33.056 25.928C32.304 26.104 31.512 26.192 30.68 26.192C29.4 26.192 28.136 26 26.888 25.616C25.64 25.232 24.52 24.688 23.528 23.984L24.992 21.128C25.136 21.272 25.392 21.464 25.76 21.704C26.144 21.928 26.592 22.16 27.104 22.4C27.616 22.624 28.184 22.816 28.808 22.976C29.432 23.136 30.072 23.216 30.728 23.216C32.552 23.216 33.464 22.632 33.464 21.464C33.464 21.096 33.36 20.784 33.152 20.528C32.944 20.272 32.648 20.048 32.264 19.856C31.88 19.664 31.416 19.488 30.872 19.328C30.328 19.168 29.72 18.992 29.048 18.8C28.232 18.576 27.52 18.336 26.912 18.08C26.32 17.808 25.824 17.496 25.424 17.144C25.024 16.776 24.72 16.36 24.512 15.896C24.32 15.416 24.224 14.848 24.224 14.192C24.224 13.328 24.384 12.56 24.704 11.888C25.024 11.216 25.464 10.656 26.024 10.208C26.6 9.76 27.264 9.424 28.016 9.2C28.768 8.96 29.576 8.84 30.44 8.84C31.64 8.84 32.744 9.032 33.752 9.416C34.76 9.784 35.64 10.224 36.392 10.736L34.928 13.424ZM54.4843 13.424H57.5323L52.2763 26H49.6363L47.4763 20.48L45.3403 26H42.7003L37.4683 13.424H40.4923L44.2363 22.976L45.7723 18.896L43.5643 13.448H46.1563L47.4763 17.312L48.8203 13.448H51.4123L49.2283 18.896L50.7403 22.976L54.4843 13.424ZM64.5038 26.24C63.4958 26.24 62.5838 26.072 61.7678 25.736C60.9518 25.384 60.2558 24.912 59.6798 24.32C59.1038 23.728 58.6558 23.04 58.3358 22.256C58.0318 21.472 57.8798 20.648 57.8798 19.784C57.8798 18.888 58.0318 18.048 58.3358 17.264C58.6398 16.464 59.0798 15.768 59.6558 15.176C60.2318 14.568 60.9278 14.088 61.7438 13.736C62.5758 13.384 63.5038 13.208 64.5278 13.208C65.5518 13.208 66.4638 13.384 67.2638 13.736C68.0798 14.088 68.7678 14.56 69.3278 15.152C69.9038 15.744 70.3358 16.432 70.6238 17.216C70.9278 18 71.0798 18.816 71.0798 19.664C71.0798 19.872 71.0718 20.072 71.0558 20.264C71.0558 20.456 71.0398 20.616 71.0078 20.744H61.2878C61.3358 21.24 61.4558 21.68 61.6478 22.064C61.8398 22.448 62.0878 22.776 62.3918 23.048C62.6958 23.32 63.0398 23.528 63.4238 23.672C63.8078 23.816 64.2078 23.888 64.6238 23.888C65.2638 23.888 65.8638 23.736 66.4238 23.432C66.9998 23.112 67.3918 22.696 67.5998 22.184L70.3598 22.952C69.8958 23.912 69.1518 24.704 68.1278 25.328C67.1198 25.936 65.9118 26.24 64.5038 26.24ZM67.7678 18.656C67.6878 17.712 67.3358 16.96 66.7118 16.4C66.1038 15.824 65.3598 15.536 64.4798 15.536C64.0478 15.536 63.6398 15.616 63.2558 15.776C62.8878 15.92 62.5598 16.128 62.2718 16.4C61.9838 16.672 61.7438 17 61.5518 17.384C61.3758 17.768 61.2718 18.192 61.2398 18.656H67.7678ZM76.571 26.24C75.963 26.24 75.395 26.144 74.867 25.952C74.339 25.744 73.883 25.464 73.499 25.112C73.115 24.744 72.811 24.32 72.587 23.84C72.379 23.36 72.275 22.832 72.275 22.256C72.275 21.664 72.403 21.12 72.659 20.624C72.931 20.112 73.299 19.68 73.763 19.328C74.243 18.976 74.811 18.704 75.467 18.512C76.123 18.304 76.843 18.2 77.627 18.2C78.187 18.2 78.731 18.248 79.259 18.344C79.803 18.44 80.283 18.576 80.699 18.752V18.032C80.699 17.2 80.459 16.56 79.979 16.112C79.515 15.664 78.819 15.44 77.891 15.44C77.219 15.44 76.563 15.56 75.923 15.8C75.283 16.04 74.627 16.392 73.955 16.856L72.971 14.816C74.587 13.744 76.331 13.208 78.203 13.208C80.011 13.208 81.411 13.656 82.403 14.552C83.411 15.432 83.915 16.712 83.915 18.392V22.304C83.915 22.64 83.971 22.88 84.083 23.024C84.211 23.168 84.411 23.248 84.683 23.264V26C84.139 26.112 83.667 26.168 83.267 26.168C82.659 26.168 82.187 26.032 81.851 25.76C81.531 25.488 81.331 25.128 81.251 24.68L81.179 23.984C80.619 24.72 79.939 25.28 79.139 25.664C78.339 26.048 77.483 26.24 76.571 26.24ZM77.483 23.888C78.027 23.888 78.539 23.792 79.019 23.6C79.515 23.408 79.899 23.152 80.171 22.832C80.523 22.56 80.699 22.256 80.699 21.92V20.48C80.315 20.336 79.899 20.224 79.451 20.144C79.003 20.048 78.571 20 78.155 20C77.323 20 76.643 20.192 76.115 20.576C75.587 20.944 75.323 21.416 75.323 21.992C75.323 22.536 75.531 22.992 75.947 23.36C76.363 23.712 76.875 23.888 77.483 23.888ZM90.0761 26L85.4441 13.424H88.7561L91.9481 23.384L95.1641 13.424H98.1881L93.5561 26H90.0761ZM103.091 26.24C102.483 26.24 101.915 26.144 101.387 25.952C100.859 25.744 100.403 25.464 100.019 25.112C99.6353 24.744 99.3313 24.32 99.1073 23.84C98.8993 23.36 98.7953 22.832 98.7953 22.256C98.7953 21.664 98.9233 21.12 99.1793 20.624C99.4513 20.112 99.8193 19.68 100.283 19.328C100.763 18.976 101.331 18.704 101.987 18.512C102.643 18.304 103.363 18.2 104.147 18.2C104.707 18.2 105.251 18.248 105.779 18.344C106.323 18.44 106.803 18.576 107.219 18.752V18.032C107.219 17.2 106.979 16.56 106.499 16.112C106.035 15.664 105.339 15.44 104.411 15.44C103.739 15.44 103.083 15.56 102.443 15.8C101.803 16.04 101.147 16.392 100.475 16.856L99.4913 14.816C101.107 13.744 102.851 13.208 104.723 13.208C106.531 13.208 107.931 13.656 108.923 14.552C109.931 15.432 110.435 16.712 110.435 18.392V22.304C110.435 22.64 110.491 22.88 110.603 23.024C110.731 23.168 110.931 23.248 111.203 23.264V26C110.659 26.112 110.187 26.168 109.787 26.168C109.179 26.168 108.707 26.032 108.371 25.76C108.051 25.488 107.851 25.128 107.771 24.68L107.699 23.984C107.139 24.72 106.459 25.28 105.659 25.664C104.859 26.048 104.003 26.24 103.091 26.24ZM104.003 23.888C104.547 23.888 105.059 23.792 105.539 23.6C106.035 23.408 106.419 23.152 106.691 22.832C107.043 22.56 107.219 22.256 107.219 21.92V20.48C106.835 20.336 106.419 20.224 105.971 20.144C105.523 20.048 105.091 20 104.675 20C103.843 20 103.163 20.192 102.635 20.576C102.107 20.944 101.843 21.416 101.843 21.992C101.843 22.536 102.051 22.992 102.467 23.36C102.883 23.712 103.395 23.888 104.003 23.888Z" fill="black"/>
<rect y="9" width="11" height="11" fill="#5956E9"/>
<rect x="5" y="15" width="11" height="11" fill="#FFDC5F"/>
</svg>
